<svg xmlns="http://www.w3.org/2000/svg" xmlns:xlink="http://www.w3.org/1999/xlink" width="1366" zoomAndPan="magnify" viewBox="0 0 1024.5 576" height="768" preserveAspectRatio="xMidYMid meet" version="1.0"><defs><clipPath id="99c173ff16"><path d="M 0 0.140625 L 1024 0.140625 L 1024 575.859375 L 0 575.859375 Z M 0 0.140625 " clip-rule="nonzero"/></clipPath><clipPath id="f8de9b68db"><path d="M 205.628906 181 L 409 181 L 409 269 L 205.628906 269 Z M 205.628906 181 " clip-rule="nonzero"/></clipPath><clipPath id="8c00c886ae"><path d="M 205.628906 324 L 461.253906 324 L 461.253906 405.964844 L 205.628906 405.964844 Z M 205.628906 324 " clip-rule="nonzero"/></clipPath><clipPath id="addfe66848"><path d="M 140.003906 96 L 526.816406 96 L 526.816406 484 L 140.003906 484 Z M 140.003906 96 " clip-rule="nonzero"/></clipPath></defs><g clip-path="url(#99c173ff16)"><path fill="#ffffff" d="M 0 0.140625 L 1024 0.140625 L 1024 575.859375 L 0 575.859375 Z M 0 0.140625 " fill-opacity="1" fill-rule="nonzero"/><path fill="#ffffff" d="M 0 0.140625 L 1024 0.140625 L 1024 575.859375 L 0 575.859375 Z M 0 0.140625 " fill-opacity="1" fill-rule="nonzero"/></g><g clip-path="url(#f8de9b68db)"><path fill="#eeecee" d="M 209.894531 268.367188 L 244.578125 268.367188 C 246.855469 268.367188 248.84375 266.375 248.84375 264.101562 L 248.84375 255.289062 L 252.539062 255.289062 C 254.8125 255.289062 256.804688 256.992188 259.933594 259.550781 C 264.765625 263.53125 271.304688 268.648438 282.390625 268.648438 C 283.8125 268.648438 284.949219 268.648438 286.371094 268.367188 C 294.046875 267.511719 299.449219 264.671875 304.28125 262.109375 C 309.683594 259.269531 314.234375 256.992188 320.773438 258.132812 L 337.261719 260.691406 C 344.652344 261.828125 350.910156 259.835938 354.886719 255.003906 C 355.457031 254.152344 356.027344 253.296875 356.59375 252.445312 L 381.898438 256.710938 C 396.113281 259.269531 405.210938 251.875 407.769531 243.914062 C 410.328125 235.671875 406.914062 224.582031 393.554688 218.042969 L 340.390625 192.742188 C 338.683594 191.890625 337.261719 191.035156 335.554688 190.46875 C 320.488281 183.074219 307.410156 176.535156 288.078125 188.476562 C 277.273438 195.015625 261.070312 197.289062 250.265625 197.289062 L 248.558594 197.289062 L 248.558594 188.476562 C 248.558594 186.203125 246.570312 184.210938 244.296875 184.210938 L 209.894531 184.210938 C 207.621094 184.210938 205.628906 185.917969 205.628906 188.476562 L 205.628906 264.386719 C 205.628906 266.660156 207.621094 268.367188 209.894531 268.367188 Z M 250.550781 205.820312 C 262.773438 205.820312 280.402344 203.261719 292.625 195.585938 C 307.980469 186.203125 316.792969 190.75 331.859375 198.144531 C 333.566406 198.996094 334.988281 199.847656 336.691406 200.417969 L 389.859375 225.71875 C 399.238281 230.269531 401.230469 236.808594 399.808594 241.355469 C 398.386719 245.90625 392.699219 250.171875 383.601562 248.464844 L 358.867188 244.199219 C 358.867188 241.640625 358.585938 239.082031 357.445312 236.523438 C 354.886719 229.984375 349.488281 225.71875 342.664062 224.582031 L 299.449219 218.042969 C 297.175781 217.761719 294.902344 219.183594 294.617188 221.742188 C 294.332031 224.015625 295.753906 226.289062 298.3125 226.574219 L 341.527344 233.113281 C 346.929688 233.964844 348.917969 237.660156 349.769531 239.652344 C 351.191406 243.0625 350.625 247.042969 348.632812 249.601562 C 346.074219 252.730469 342.09375 252.730469 338.96875 252.160156 L 322.476562 249.601562 C 313.097656 248.179688 306.839844 251.308594 300.871094 254.433594 C 296.324219 256.710938 292.058594 258.984375 286.085938 259.550781 C 275.851562 260.691406 270.734375 256.425781 265.902344 252.445312 C 262.207031 249.316406 258.226562 246.191406 253.109375 246.191406 L 249.414062 246.191406 L 249.414062 205.820312 Z M 214.160156 192.742188 L 240.316406 192.742188 L 240.316406 260.121094 L 214.160156 260.121094 Z M 214.160156 192.742188 " fill-opacity="1" fill-rule="nonzero"/></g><path fill="#eeecee" d="M 321.058594 293.953125 C 313.097656 301.0625 307.125 314.707031 306.558594 327.785156 C 306.558594 330.058594 308.261719 332.050781 310.539062 332.332031 C 311.675781 332.332031 312.8125 332.332031 313.949219 332.332031 C 325.890625 332.332031 338.398438 328.351562 345.789062 321.53125 C 353.75 314.421875 359.722656 300.777344 360.289062 287.699219 C 360.289062 285.425781 358.585938 283.433594 356.308594 283.148438 C 343.515625 282.582031 329.300781 286.84375 321.058594 293.953125 Z M 340.390625 315.277344 C 334.988281 320.109375 325.035156 323.519531 315.65625 323.804688 C 317.078125 314.421875 321.339844 305.039062 327.027344 300.207031 C 332.429688 295.375 342.378906 291.964844 351.761719 291.679688 C 350.054688 301.34375 345.789062 310.441406 340.390625 315.277344 Z M 340.390625 315.277344 " fill-opacity="1" fill-rule="nonzero"/><g clip-path="url(#8c00c886ae)"><path fill="#eeecee" d="M 457.238281 324.65625 L 403.21875 324.65625 C 385.878906 324.65625 378.484375 334.324219 371.945312 342.851562 C 368.820312 346.832031 365.976562 350.527344 361.996094 353.371094 C 348.632812 363.039062 318.214844 363.039062 304.851562 353.371094 C 301.15625 350.527344 298.027344 346.832031 295.183594 342.851562 C 288.644531 334.324219 281.253906 324.65625 263.910156 324.65625 L 209.894531 324.65625 C 207.621094 324.65625 205.628906 326.648438 205.628906 328.921875 L 205.628906 401.132812 C 205.628906 403.410156 207.621094 405.398438 209.894531 405.398438 L 457.238281 405.398438 C 459.511719 405.398438 461.5 403.410156 461.5 401.132812 L 461.5 328.921875 C 461.5 326.648438 459.511719 324.65625 457.238281 324.65625 Z M 452.972656 396.871094 L 214.160156 396.871094 L 214.160156 333.1875 L 263.910156 333.1875 C 276.988281 333.1875 282.390625 340.011719 288.644531 347.96875 C 292.058594 352.234375 295.46875 356.785156 300.300781 360.195312 C 316.507812 371.851562 351.191406 371.851562 367.398438 360.195312 C 372.230469 356.785156 375.640625 352.234375 379.054688 347.96875 C 385.308594 340.011719 390.425781 333.1875 403.789062 333.1875 L 452.972656 333.1875 Z M 452.972656 396.871094 " fill-opacity="1" fill-rule="nonzero"/></g><path fill="#eeecee" d="M 235.199219 359.910156 C 232.921875 359.910156 230.933594 361.902344 230.933594 364.175781 C 230.933594 366.449219 232.921875 368.441406 235.199219 368.441406 C 237.472656 368.441406 239.460938 366.449219 239.460938 364.175781 C 239.460938 361.902344 237.472656 359.910156 235.199219 359.910156 Z M 235.199219 359.910156 " fill-opacity="1" fill-rule="nonzero"/><path fill="#eeecee" d="M 268.175781 374.125 C 265.902344 374.125 263.910156 376.117188 263.910156 378.390625 C 263.910156 380.664062 265.902344 382.65625 268.175781 382.65625 C 270.449219 382.65625 272.441406 380.664062 272.441406 378.390625 C 272.441406 376.117188 270.449219 374.125 268.175781 374.125 Z M 268.175781 374.125 " fill-opacity="1" fill-rule="nonzero"/><path fill="#eeecee" d="M 393.554688 371.28125 C 391.277344 371.28125 389.289062 373.273438 389.289062 375.546875 C 389.289062 377.820312 391.277344 379.8125 393.554688 379.8125 C 395.828125 379.8125 397.816406 377.820312 397.816406 375.546875 C 397.816406 373.273438 396.113281 371.28125 393.554688 371.28125 Z M 393.554688 371.28125 " fill-opacity="1" fill-rule="nonzero"/><path fill="#eeecee" d="M 433.070312 374.410156 C 435.347656 374.410156 437.335938 372.421875 437.335938 370.144531 C 437.335938 367.871094 435.347656 365.882812 433.070312 365.882812 C 430.796875 365.882812 428.808594 367.871094 428.808594 370.144531 C 428.808594 372.703125 430.796875 374.410156 433.070312 374.410156 Z M 433.070312 374.410156 " fill-opacity="1" fill-rule="nonzero"/><g clip-path="url(#addfe66848)"><path fill="#eeecee" d="M 333.5625 483.570312 C 226.832031 483.570312 140.003906 396.746094 140.003906 290.015625 C 140.003906 183.28125 226.832031 96.457031 333.5625 96.457031 C 440.292969 96.457031 527.121094 183.28125 527.121094 290.015625 C 527.121094 396.746094 440.292969 483.570312 333.5625 483.570312 Z M 333.5625 112.585938 C 235.734375 112.585938 156.132812 192.203125 156.132812 290.015625 C 156.132812 387.824219 235.734375 467.441406 333.5625 467.441406 C 431.375 467.441406 510.992188 387.824219 510.992188 290.015625 C 510.992188 192.203125 431.375 112.585938 333.5625 112.585938 Z M 333.5625 112.585938 " fill-opacity="1" fill-rule="nonzero"/></g></svg>